PathFileType	4	(X/Y/Z)	G:\TennisProject\Miami_Dimitrov_Sinner_masked_Sports2D\Miami_Dimitrov_Sinner_masked_Sports2D_m_person00.trc
DataRate	CameraRate	NumFrames	NumMarkers	Units	OrigDataRate	OrigDataStartFrame	OrigNumFrames
25	25	10	22	m	25	187	499
Frame#	Time	Hip			RHip			RKnee			RAnkle			RBigToe			RSmallToe			RHeel			LHip			LKnee			LAnkle			LBigToe			LSmallToe			LHeel			Neck			Head			Nose			RShoulder			RElbow			RWrist			LShoulder			LElbow			LWrist		
		X1	Y1	Z1	X2	Y2	Z2	X3	Y3	Z3	X4	Y4	Z4	X5	Y5	Z5	X6	Y6	Z6	X7	Y7	Z7	X8	Y8	Z8	X9	Y9	Z9	X10	Y10	Z10	X11	Y11	Z11	X12	Y12	Z12	X13	Y13	Z13	X14	Y14	Z14	X15	Y15	Z15	X16	Y16	Z16	X17	Y17	Z17	X18	Y18	Z18	X19	Y19	Z19	X20	Y20	Z20	X21	Y21	Z21	X22	Y22	Z22
187	7.48	15.319336732921537	0.8773920328256704	0.0	15.193918854599659	0.860512816563786	0.0	15.067251992549563	0.45714375778869626	0.0	14.82853701492524	0.11562253760007464	0.0	14.783454174131771	-0.00818951029721025	0.0	14.732820565102994	0.0066303677665638105	0.0	14.818907793607798	0.05575031436323557	0.0	15.44103341294998	0.8847530413329938	0.0	15.677069318429131	0.5068186612085145	0.0	15.929632479069724	0.16789890833187832	0.0	16.027344437378595	0.02544071810650289	0.0	16.072747549457496	0.058646036257302116	0.0	15.951435539807926	0.10605485522077462	0.0	15.293988898428074	1.4281883367064916	0.0	15.287314694240372	1.7237129896865597	0.0	15.28510692245015	1.561553804839473	0.0	15.110593117672103	1.3347035695663014	0.0	15.00012769421908	1.0872878602210652	0.0	15.150830745151767	0.9482674749823237	0.0	15.478564192410976	1.347667731342345	0.0	15.558432140640715	1.0931448032878675	0.0	15.433911072138015	0.9549962554347579	0.0
188	7.5200000000000005	15.429483675619357	0.8768941092681707	0.0	15.305925101019946	0.853026280004424	0.0	15.155877019799384	0.45453968425606506	0.0	14.883046298191491	0.11080076548528937	0.0	14.803467618642298	-0.010896449722834836	0.0	14.760327171125898	0.011750986806158801	0.0	14.86887063100233	0.05039827226194354	0.0	15.55626055307272	0.877447713367051	0.0	15.77088127545393	0.5001335760381062	0.0	15.996612169896862	0.1394817024543236	0.0	16.063506433265353	-0.0033404842651842165	0.0	16.115559100884404	0.022353670110568623	0.0	16.011280038776235	0.0785089686825055	0.0	15.3882373256821	1.4351816321420838	0.0	15.374351346087597	1.7299218584745695	0.0	15.373173920198516	1.5675398873203295	0.0	15.209508340278212	1.332346341162329	0.0	15.109899130444765	1.0772682700031582	0.0	15.254286308763705	0.9474968943342807	0.0	15.580842444881476	1.353259312514183	0.0	15.663412697118149	1.1013688567445454	0.0	15.556943840177553	0.9523295667247084	0.0
189	7.5600000000000005	15.519139247567008	0.8906570889640649	0.0	15.400856124813847	0.8687339978354479	0.0	15.23446913146906	0.47524777874631746	0.0	14.967854358824031	0.11061205161583856	0.0	14.86275122251363	-0.008673096054382014	0.0	14.828664210629745	0.01838734992570404	0.0	14.958853428793766	0.04653970688712189	0.0	15.647928337608523	0.8900811690821445	0.0	15.824812045294424	0.5100121422122553	0.0	16.008255778668936	0.1388548930592292	0.0	16.071060341026687	-0.007838204877280028	0.0	16.121483289065374	0.01414990268109211	0.0	16.012648350842138	0.07496129966142936	0.0	15.472316513207891	1.4480570389229688	0.0	15.451632243381685	1.7474344507311386	0.0	15.452120798562483	1.5840315759987051	0.0	15.29916854322849	1.3412009233956452	0.0	15.204471505796837	1.0862257017536447	0.0	15.34303349767282	0.9587741385809543	0.0	15.663218107578139	1.3699001068750798	0.0	15.753998743119977	1.121056019047571	0.0	15.657169963850293	0.9640322150828263	0.0
190	7.6000000000000005	15.590562729388267	0.9236942499006693	0.0	15.474348228335929	0.9059735148413604	0.0	15.301371745567845	0.5164973370277394	0.0	15.083381258088485	0.1259818419939452	0.0	14.973572944209872	0.0014858527370207124	0.0	14.939631362615046	0.03049912382958682	0.0	15.087466723556565	0.05537724836345041	0.0	15.71975431255915	0.9212997818184363	0.0	15.85393222452672	0.5346943027528793	0.0	16.004350261843197	0.1479221326558369	0.0	16.070308888575077	-0.0037952794097555354	0.0	16.119048948038444	0.018255839043604935	0.0	16.005861074742388	0.08165267099799663	0.0	15.54312516230071	1.4765194810465372	0.0	15.519402572606483	1.7747719028918185	0.0	15.517935046198573	1.6162334378833996	0.0	15.371603436053208	1.3740547151300992	0.0	15.278369803393563	1.127999014135064	0.0	15.412235570864357	0.9887825148736434	0.0	15.732226885379653	1.4042250622214911	0.0	15.835597651575533	1.1590870249538803	0.0	15.730793470292856	0.993770000994503	0.0
191	7.640000000000001	15.653297648055574	0.966134826066273	0.0	15.533229478747575	0.945442610552656	0.0	15.369569161660312	0.5614086297442707	0.0	15.213596520937251	0.15318315377994488	0.0	15.12114901444457	0.019073978996097998	0.0	15.075779154234525	0.04888039695076266	0.0	15.226495833771477	0.0798871608323408	0.0	15.782691684948938	0.9556370400188602	0.0	15.887284687707904	0.5652330883566069	0.0	16.01396832666404	0.15514579284978613	0.0	16.06458099399446	0.0014213215382722433	0.0	16.118033346676135	0.023065905351780755	0.0	16.02062160907895	0.09088212582024206	0.0	15.602566304412358	1.5191919766556643	0.0	15.578322963656593	1.8057896355363532	0.0	15.574839499261092	1.6530666173027675	0.0	15.427920771062974	1.4257806887212863	0.0	15.3385487884612	1.1854344125723038	0.0	15.471743014031816	1.0381826341902831	0.0	15.796513747245983	1.4556105340224652	0.0	15.908116983278624	1.212421627821813	0.0	15.800975181910317	1.0425566061842482	0.0
192	7.68	15.712077945251815	1.0022831772213325	0.0	15.587380337526067	0.9763964281334334	0.0	15.445505526893516	0.5968332083065669	0.0	15.330388486501201	0.18340433780080567	0.0	15.265644542413767	0.042135452132103075	0.0	15.206794654608009	0.07128340759651705	0.0	15.343833327368804	0.11394875518286295	0.0	15.841758040422617	0.9842066511840978	0.0	15.938520732071606	0.5933602956642374	0.0	16.04652797165532	0.16843963359790323	0.0	16.060696213451493	0.010721923501435951	0.0	16.12660838006803	0.02859911071579371	0.0	16.055928542382468	0.105985084810706	0.0	15.655985745845035	1.5555531634022002	0.0	15.630038839564556	1.834449424526222	0.0	15.628871508182641	1.6785730053482648	0.0	15.47922847521083	1.4708965387603123	0.0	15.391840857588832	1.2281627193412965	0.0	15.529902455121816	1.089631654764839	0.0	15.855422627113484	1.5031640001441886	0.0	15.968493822149407	1.2567871929917185	0.0	15.870319708240329	1.0882741971547338	0.0
193	7.72	15.76979644881515	1.0246839905282374	0.0	15.64516895295056	0.998706480450256	0.0	15.522230370284666	0.6230194108411305	0.0	15.415663734021084	0.2114358593347104	0.0	15.366433158868729	0.06833183177428838	0.0	15.304660757270874	0.09664743330457237	0.0	15.427770799772992	0.14853437730021612	0.0	15.899791635694822	1.0055805432645493	0.0	16.000915306166174	0.6173140839854815	0.0	16.102849455416514	0.19406428519645808	0.0	16.09073015373084	0.031021741681559033	0.0	16.167870324074688	0.044008110140075093	0.0	16.107219390273293	0.12863002300259882	0.0	15.708937309895246	1.5699547443512565	0.0	15.68036476344945	1.8547186693981694	0.0	15.684474219534112	1.6896093739200932	0.0	15.534138204711091	1.4910113478045728	0.0	15.444618124463558	1.2470272750676794	0.0	15.586249915334198	1.121095908538598	0.0	15.906393678106214	1.525835664035144	0.0	16.02060903381369	1.2756831886458426	0.0	15.933169281783469	1.1115789724850809	0.0
194	7.76	15.828544693183911	1.032137474363674	0.0	15.706310318473438	1.0101419363925255	0.0	15.588343933065392	0.6397810812228775	0.0	15.475606524285578	0.23456227415136793	0.0	15.420936967727902	0.09360825058768418	0.0	15.368387650211952	0.12151046925584782	0.0	15.486408797816914	0.17373080731223728	0.0	15.95755169513171	1.0150782195872392	0.0	16.066889133273126	0.6371837314663548	0.0	16.18109700592024	0.22502988359174936	0.0	16.185221054750645	0.0647678006665071	0.0	16.257913040684677	0.07732945984295793	0.0	16.18028226790029	0.15582418722281094	0.0	15.7660780874238	1.5691287594277457	0.0	15.736644710995392	1.8612727178593336	0.0	15.744812613617475	1.692443005305696	0.0	15.593040691973105	1.4913770264328898	0.0	15.501212586395097	1.2529384711199776	0.0	15.641677626048402	1.130445252971506	0.0	15.956667395265592	1.5244340009815485	0.0	16.07257864787265	1.2732420725111935	0.0	15.990535563846956	1.117591788462598	0.0
195	7.8	15.884079741603655	1.0269522011454024	0.0	15.76193167563507	1.0101378713695959	0.0	15.639415447662836	0.6438317112393592	0.0	15.528089252019345	0.24954668795791532	0.0	15.46569582851051	0.11141156254741716	0.0	15.421816312365204	0.13629939599540955	0.0	15.534693145083336	0.18329796601585208	0.0	16.01114495929573	1.012751421732251	0.0	16.135992151532662	0.6493698399631458	0.0	16.27685181648923	0.25066563593244945	0.0	16.325021834061005	0.09927552886563608	0.0	16.380343368512982	0.11676370766516692	0.0	16.277239806254638	0.18053750715912978	0.0	15.826514616451101	1.5593789680741554	0.0	15.79774179173643	1.8516056888473955	0.0	15.806237912361551	1.6851781895222941	0.0	15.651535957070202	1.4807447050357891	0.0	15.55656757080177	1.2504523775275191	0.0	15.698392133050298	1.1238957998491956	0.0	16.01303622408606	1.50873913704213	0.0	16.127558800642532	1.2552484334176999	0.0	16.037146155280908	1.1077521240308232	0.0
196	7.84	15.932412341684643	1.012878026167192	0.0	15.80834714368122	1.0015066414681435	0.0	15.679731879357083	0.6371196500537337	0.0	15.582809417755083	0.25411582507485464	0.0	15.530285643246538	0.11618469896553858	0.0	15.482696148364115	0.13454994891104705	0.0	15.586675712707468	0.18298049105262912	0.0	16.05851528056485	1.0054200703943317	0.0	16.207815348979548	0.6473910596497056	0.0	16.381630553961315	0.2653191456363828	0.0	16.46353823695659	0.11125391388555061	0.0	16.5070899546626	0.13376499250167978	0.0	16.38543829253289	0.19537565924806596	0.0	15.884523329541224	1.5317406978465813	0.0	15.856375139326753	1.8278109961097837	0.0	15.862463833538738	1.6586742980358018	0.0	15.705893443461768	1.454421328225009	0.0	15.610206828720568	1.2296495830431535	0.0	15.754519566190472	1.0938841939922739	0.0	16.071866285916354	1.4796855057116372	0.0	16.180310010275562	1.2213247896983166	0.0	16.070316698223365	1.071121893567993	0.0
